<svg xmlns="http://www.w3.org/2000/svg" viewBox="0 0 396.07 396.07"><defs><style>.cls-1{fill:#fff;}</style></defs><title>LOGO_CATWALK</title><g id="Calque_3" data-name="Calque 3"><rect width="396.07" height="396.07"/><path class="cls-1" d="M110.08,243.5v2.66a7.37,7.37,0,0,1-2,.81,10.13,10.13,0,0,1-2.46.28,6.63,6.63,0,0,1-5-2,7.14,7.14,0,0,1-1.9-5.18,7.29,7.29,0,0,1,2-5.27,6.65,6.65,0,0,1,5-2,10.38,10.38,0,0,1,2.17.23,9.26,9.26,0,0,1,2,.69v2.46a7.52,7.52,0,0,0-1.81-.87,6.25,6.25,0,0,0-1.91-.3,4.77,4.77,0,0,0-3.61,1.41,5.21,5.21,0,0,0-1.37,3.76,4.75,4.75,0,0,0,1.37,3.46A4.63,4.63,0,0,0,106,245a5.69,5.69,0,0,0,2-.37A8.83,8.83,0,0,0,110.08,243.5Z"/><path class="cls-1" d="M112.19,240a7.22,7.22,0,0,1,.54-2.79,7.07,7.07,0,0,1,1.58-2.34,7.35,7.35,0,0,1,2.36-1.56,7.55,7.55,0,0,1,2.81-.53,7.25,7.25,0,0,1,2.78.54,7.55,7.55,0,0,1,2.38,1.58,7,7,0,0,1,1.58,2.32,7.25,7.25,0,0,1,.54,2.78,6.95,6.95,0,0,1-2.12,5.07,7.58,7.58,0,0,1-2.39,1.61,7.14,7.14,0,0,1-2.77.56,7.32,7.32,0,0,1-6.75-4.47A7.09,7.09,0,0,1,112.19,240Zm2.43,0a5,5,0,0,0,1.42,3.6,4.62,4.62,0,0,0,3.44,1.47,4.56,4.56,0,0,0,3.42-1.47,5.33,5.33,0,0,0,0-7.2,4.56,4.56,0,0,0-3.42-1.47,4.63,4.63,0,0,0-3.45,1.47A5,5,0,0,0,114.62,240Z"/><path class="cls-1" d="M149,246.67v-7.89a4.67,4.67,0,0,0-.82-3,3.09,3.09,0,0,0-2.52-1,4,4,0,0,0-1.71.37,3.67,3.67,0,0,0-1.32,1.06,3.17,3.17,0,0,0-.57,1.23,10.45,10.45,0,0,0-.18,2.32v6.92h-2.21v-7.89a4.67,4.67,0,0,0-.82-3,3.09,3.09,0,0,0-2.52-1,4,4,0,0,0-1.72.37,3.65,3.65,0,0,0-1.34,1.06,3.18,3.18,0,0,0-.55,1.19,11.27,11.27,0,0,0-.17,2.36v6.92h-2.21v-13.4h2.24v2.07a5.59,5.59,0,0,1,2-1.92,5.49,5.49,0,0,1,2.67-.63,5.3,5.3,0,0,1,2.77.69,4.36,4.36,0,0,1,1.72,2,5.9,5.9,0,0,1,2.05-2,5.36,5.36,0,0,1,2.73-.67,4.37,4.37,0,0,1,4.76,4.76v9.12Z"/><path class="cls-1" d="M174.44,246.67v-7.89a4.67,4.67,0,0,0-.82-3,3.06,3.06,0,0,0-2.52-1,3.88,3.88,0,0,0-1.7.37,3.7,3.7,0,0,0-1.33,1.06,3.48,3.48,0,0,0-.57,1.23,10.6,10.6,0,0,0-.17,2.32v6.92h-2.22v-7.89a4.67,4.67,0,0,0-.82-3,3.06,3.06,0,0,0-2.52-1,4,4,0,0,0-1.72.37,3.65,3.65,0,0,0-1.34,1.06,3.34,3.34,0,0,0-.55,1.19,11.27,11.27,0,0,0-.17,2.36v6.92h-2.21v-13.4H158v2.07a5.53,5.53,0,0,1,2-1.92,5.48,5.48,0,0,1,2.66-.63,5.25,5.25,0,0,1,2.77.69,4.38,4.38,0,0,1,1.73,2,6,6,0,0,1,2-2,5.42,5.42,0,0,1,2.73-.67,4.37,4.37,0,0,1,4.77,4.76v9.12Z"/><path class="cls-1" d="M183.38,233.27v6.59a7,7,0,0,0,.86,4,4.21,4.21,0,0,0,5.77,0,7.09,7.09,0,0,0,.84-4v-6.59h2.34v7.82a6.24,6.24,0,0,1-1.55,4.6,7.41,7.41,0,0,1-9.11,0,6.28,6.28,0,0,1-1.55-4.59v-7.82Z"/><path class="cls-1" d="M197.63,246.67v-13.4h2.24v2.07a5.66,5.66,0,0,1,2.08-1.92,6,6,0,0,1,2.82-.63,5.17,5.17,0,0,1,3.7,1.26,4.57,4.57,0,0,1,1.34,3.5v9.12h-2.35v-7.89a4.55,4.55,0,0,0-.85-3,3.34,3.34,0,0,0-2.65-1,4.56,4.56,0,0,0-1.87.37,3.77,3.77,0,0,0-1.4,1.06,3.23,3.23,0,0,0-.6,1.2,9.69,9.69,0,0,0-.19,2.35v6.92Z"/><path class="cls-1" d="M213.92,226.81a1.67,1.67,0,0,1,1.69-1.67,1.61,1.61,0,0,1,1.18.5,1.67,1.67,0,0,1,.49,1.2,1.56,1.56,0,0,1-.49,1.17,1.61,1.61,0,0,1-1.18.49,1.67,1.67,0,0,1-1.2-.49A1.64,1.64,0,0,1,213.92,226.81Zm.54,19.86v-13.4h2.32v13.4Z"/><path class="cls-1" d="M231.9,243.5v2.66a7.32,7.32,0,0,1-2.05.81,10,10,0,0,1-2.45.28,6.63,6.63,0,0,1-5-2,7.14,7.14,0,0,1-1.9-5.18,7.28,7.28,0,0,1,2-5.27,6.68,6.68,0,0,1,5-2,10.45,10.45,0,0,1,2.17.23,9.26,9.26,0,0,1,2,.69v2.46a7.41,7.41,0,0,0-1.82-.87,6.14,6.14,0,0,0-1.9-.3,4.81,4.81,0,0,0-3.62,1.41,5.2,5.2,0,0,0-1.36,3.76,4.75,4.75,0,0,0,1.37,3.46,4.61,4.61,0,0,0,3.43,1.39,5.71,5.71,0,0,0,2-.37A9,9,0,0,0,231.9,243.5Z"/><path class="cls-1" d="M247.57,233.27v13.4h-2.23v-2.43a5.82,5.82,0,0,1-2.06,2.24,5.26,5.26,0,0,1-2.8.77,6,6,0,0,1-4.65-2,7.58,7.58,0,0,1-1.77-5.25,7.69,7.69,0,0,1,1.72-5.27,5.79,5.79,0,0,1,4.58-2,5.49,5.49,0,0,1,2.92.75,5.38,5.38,0,0,1,2,2.25v-2.52Zm-2.23,6.83a5.27,5.27,0,0,0-1.24-3.66,4.59,4.59,0,0,0-6.45-.11,5.12,5.12,0,0,0-1.15,3.56,5.47,5.47,0,0,0,1.16,3.75,4.74,4.74,0,0,0,6.52,0A5.17,5.17,0,0,0,245.34,240.1Z"/><path class="cls-1" d="M252.51,235.16h-2.46v-1.89h2.46v-5.4h2.34v5.4h2.46v1.89h-2.46v11.51h-2.34Z"/><path class="cls-1" d="M259.49,226.81a1.67,1.67,0,0,1,1.69-1.67,1.61,1.61,0,0,1,1.18.5,1.67,1.67,0,0,1,.49,1.2,1.56,1.56,0,0,1-.49,1.17,1.61,1.61,0,0,1-1.18.49A1.67,1.67,0,0,1,260,228,1.64,1.64,0,0,1,259.49,226.81Zm.55,19.86v-13.4h2.31v13.4Z"/><path class="cls-1" d="M266.1,240a7.22,7.22,0,0,1,.54-2.79,7.07,7.07,0,0,1,1.58-2.34,7.35,7.35,0,0,1,2.36-1.56,7.55,7.55,0,0,1,2.81-.53,7.21,7.21,0,0,1,2.78.54,7.55,7.55,0,0,1,2.38,1.58,7,7,0,0,1,1.58,2.32,7.25,7.25,0,0,1,.55,2.78,7,7,0,0,1-2.13,5.07,7.58,7.58,0,0,1-2.39,1.61,7.14,7.14,0,0,1-2.77.56,7.36,7.36,0,0,1-2.8-.55,7.34,7.34,0,0,1-3.95-3.92A7.09,7.09,0,0,1,266.1,240Zm2.43,0a5,5,0,0,0,1.42,3.6,4.62,4.62,0,0,0,3.44,1.47,4.56,4.56,0,0,0,3.42-1.47,5.33,5.33,0,0,0,0-7.2,4.74,4.74,0,0,0-6.86,0A5,5,0,0,0,268.53,240Z"/><path class="cls-1" d="M284.25,246.67v-13.4h2.24v2.07a5.66,5.66,0,0,1,2.08-1.92,6,6,0,0,1,2.81-.63,5.18,5.18,0,0,1,3.71,1.26,4.57,4.57,0,0,1,1.33,3.5v9.12h-2.34v-7.89a4.55,4.55,0,0,0-.86-3,3.3,3.3,0,0,0-2.64-1,4.52,4.52,0,0,0-1.87.37,3.7,3.7,0,0,0-1.4,1.06,3.25,3.25,0,0,0-.61,1.2,10.4,10.4,0,0,0-.18,2.35v6.92Z"/><path class="cls-1" d="M129.45,184.51a21.5,21.5,0,0,0-6.25-3.78,19.26,19.26,0,0,0-6.93-1.26A15.28,15.28,0,0,0,104.83,184a17.56,17.56,0,0,0-.12,23.14,14.31,14.31,0,0,0,10.83,4.52,19.73,19.73,0,0,0,7.25-1.35,23.2,23.2,0,0,0,6.6-4.07v7.88a20.54,20.54,0,0,1-6.12,3,24.63,24.63,0,0,1-7.18,1A25.1,25.1,0,0,1,107,216.5a21.44,21.44,0,0,1-12.16-12,24.15,24.15,0,0,1,0-17.75A22,22,0,0,1,107,174.68a24,24,0,0,1,8.94-1.63,23.52,23.52,0,0,1,7.2,1.1,25,25,0,0,1,6.65,3.33Z"/><path class="cls-1" d="M166.42,217l-4.86-11.05h-17l-5,11.05h-7.33L153,172.38,173.78,217Zm-19.27-16.85H159.1l-4.39-9.78c-.26-.63-.52-1.35-.8-2.16s-.54-1.71-.82-2.71c-.23.94-.48,1.82-.74,2.63s-.53,1.55-.81,2.24Z"/><path class="cls-1" d="M188.4,180v37h-7V180H170v-5.92h29.71V180Z"/><path class="cls-1" d="M200,174.08h6.88L215,195.73c.53,1.42,1,2.67,1.33,3.75s.68,2.08.95,3q1-3.41,2.14-6.66l.21-.55,8.61-22.91,9.08,23.35c.43,1.13.84,2.26,1.22,3.4s.74,2.27,1.07,3.42c.19-.88.46-1.84.79-2.9s.76-2.3,1.29-3.75l8.06-21.82h6.94l-16.61,44.56-9.79-24.47c-.43-1.09-.82-2.14-1.17-3.14s-.66-2-.94-2.86q-.5,1.72-1,3.24c-.34,1-.68,2-1,2.88l-9.61,24.35Z"/><path class="cls-1" d="M288.68,217l-4.86-11.05h-17l-5,11.05h-7.32l20.77-44.59L296,217ZM269.4,200.12h12l-4.4-9.78c-.25-.63-.52-1.35-.79-2.16s-.55-1.71-.82-2.71c-.23.94-.48,1.82-.75,2.63s-.53,1.55-.8,2.24Z"/><path class="cls-1" d="M300.08,217V174.08h7v36.65h15.59V217Z"/><path class="cls-1" d="M328.29,217V174.08h7v17.75l15.41-17.75h8.53l-17,19.07,19,23.82h-9l-17-21.92V217Z"/><path class="cls-1" d="M95.39,120.68l-1.76-4.8-2.08,5.6c-2.72,3.2-3.84,8.33-4,16.17-4.17,2.88-4.49,6.08-4.65,7.84s-9,16.33-19.36,17.93-33.13,1-33.13,1c-4-1.92-6.89-5.12-8.33-5.12s-3.52,1.37,2.57,5.24,6.88,4.68,14.24,5,17.45,1,17.45,1A34.39,34.39,0,0,0,52,179.58c-.64,1.92-8,5.76-8,5.76-.32,1.6-.32,13.29-.32,13.29-1.28,1-1.6,4.48.16,4.32a3.47,3.47,0,0,0,3.2-2.56c.32-1.28,1.44-8.48,1.44-8.48l1.92,15.36s.32,2.88,2.56,1.92.64-4.64.64-4.64l-.16-9.12s14.09-10.09,16.81-15.05c2.08-3.52,10.08-6.24,11.36-6.72s9.13-4.32,12.17-9.6,7.36-14.25,9.76-16.49,6.88-2.4,8.16-3.68,7.21-7,8.81-7.68,5.28.8,7,.48,1.44-3,1.44-3c2.08,0,4.32-1.28,2.08-3s-22.57,2.08-24.17,1.44a8,8,0,0,1-2.72-1.92c3-2.24,2.4-3,2.4-3.85s.48-2.4-1-2.4-3.84-1.92-4.8-2.88S95.39,120.68,95.39,120.68Z"/></g></svg>