<svg xmlns="http://www.w3.org/2000/svg" viewBox="0 0 207.55 208.9"><defs><style>.cls-1{fill:#fff;}</style></defs><title>LOGO_CATWALK</title><g id="Calque_3" data-name="Calque 3"><rect x="0.23" y="0.9" width="207.1" height="207.1" rx="103.55"/><path class="cls-1" d="M127.61,52.13l-2.19-6-2.6,7c-3.39,4-4.79,10.38-5,20.16-5.19,3.59-5.59,7.59-5.79,9.78s-11.18,20.36-24.15,22.36-41.32,1.19-41.32,1.19c-5-2.39-8.58-6.38-10.37-6.38s-4.4,1.71,3.19,6.54S48,112.61,57.15,113s21.76,1.2,21.76,1.2a43.27,43.27,0,0,0-5.39,11.38c-.8,2.39-10,7.18-10,7.18-.4,2-.4,16.57-.4,16.57-1.6,1.2-2,5.59.2,5.39a4.33,4.33,0,0,0,4-3.2c.4-1.59,1.8-10.58,1.8-10.58l2.39,19.17s.4,3.59,3.2,2.39.8-5.79.8-5.79l-.2-11.37s17.56-12.58,21-18.77c2.6-4.39,12.58-7.78,14.18-8.38s11.37-5.39,15.16-12,9.19-17.77,12.18-20.56,8.58-3,10.18-4.59,9-8.79,11-9.58,6.58,1,8.78.59,1.8-3.79,1.8-3.79c2.59,0,5.39-1.6,2.59-3.79S144,67.1,142,66.31a10.05,10.05,0,0,1-3.39-2.4c3.79-2.79,3-3.79,3-4.79s.6-3-1.19-3-4.8-2.4-6-3.6S127.61,52.13,127.61,52.13Z"/></g></svg>