<svg xmlns="http://www.w3.org/2000/svg" viewBox="0 0 459.27 238.67"><defs><style>.cls-1{fill:#fff;}</style></defs><title>LOGO_CATWALK</title><g id="Calque_3" data-name="Calque 3"><rect x="0.79" y="0.47" width="458.48" height="238.2"/><path class="cls-1" d="M137,181.67v3a8,8,0,0,1-2.3.92,12,12,0,0,1-2.76.31,7.46,7.46,0,0,1-5.64-2.22,8.05,8.05,0,0,1-2.14-5.84,8.21,8.21,0,0,1,2.21-5.93A7.52,7.52,0,0,1,132,169.6a11.15,11.15,0,0,1,2.45.27,10,10,0,0,1,2.25.77v2.78a8.6,8.6,0,0,0-2.05-1,7.13,7.13,0,0,0-2.14-.33,5.4,5.4,0,0,0-4.08,1.59,5.84,5.84,0,0,0-1.53,4.23,5.35,5.35,0,0,0,1.54,3.9,5.23,5.23,0,0,0,3.87,1.57,6.45,6.45,0,0,0,2.29-.42A9.83,9.83,0,0,0,137,181.67Z"/><path class="cls-1" d="M139.35,177.74a8.25,8.25,0,0,1,.61-3.14,7.82,7.82,0,0,1,1.79-2.64,8,8,0,0,1,2.65-1.75,8.44,8.44,0,0,1,6.3,0,8.46,8.46,0,0,1,2.68,1.79,7.85,7.85,0,0,1,1.79,2.61,8.27,8.27,0,0,1,.61,3.13,8.1,8.1,0,0,1-.61,3.11,7.81,7.81,0,0,1-1.79,2.6,8.36,8.36,0,0,1-2.7,1.82,7.89,7.89,0,0,1-3.11.63,8.24,8.24,0,0,1-3.16-.62,8.34,8.34,0,0,1-2.66-1.78,8.24,8.24,0,0,1-1.79-2.64A8.11,8.11,0,0,1,139.35,177.74Zm2.74,0a5.62,5.62,0,0,0,1.6,4,5.18,5.18,0,0,0,3.88,1.66,5.12,5.12,0,0,0,3.85-1.66,6,6,0,0,0,0-8.1,5.33,5.33,0,0,0-7.73,0A5.6,5.6,0,0,0,142.09,177.74Z"/><path class="cls-1" d="M180.84,185.25v-8.9a5.23,5.23,0,0,0-.93-3.4,3.46,3.46,0,0,0-2.84-1.12,4.42,4.42,0,0,0-1.92.42,4,4,0,0,0-1.49,1.2,3.79,3.79,0,0,0-.65,1.39,12,12,0,0,0-.2,2.6v7.81h-2.49v-8.9a5.29,5.29,0,0,0-.92-3.4,3.47,3.47,0,0,0-2.84-1.12,4.51,4.51,0,0,0-1.94.42,4,4,0,0,0-1.51,1.2,3.52,3.52,0,0,0-.62,1.34,12.25,12.25,0,0,0-.19,2.65v7.81h-2.5v-15.1h2.53v2.32a6.41,6.41,0,0,1,2.25-2.16,6.21,6.21,0,0,1,3-.71,5.83,5.83,0,0,1,3.12.79,4.87,4.87,0,0,1,2,2.28,6.68,6.68,0,0,1,2.3-2.31,6.17,6.17,0,0,1,3.08-.76,4.92,4.92,0,0,1,5.36,5.37v10.28Z"/><path class="cls-1" d="M209.51,185.25v-8.9a5.23,5.23,0,0,0-.93-3.4,3.44,3.44,0,0,0-2.83-1.12,4.43,4.43,0,0,0-1.93.42,4.13,4.13,0,0,0-1.49,1.2,4,4,0,0,0-.65,1.39,12.15,12.15,0,0,0-.19,2.6v7.81H199v-8.9a5.23,5.23,0,0,0-.92-3.4,3.46,3.46,0,0,0-2.84-1.12,4.54,4.54,0,0,0-1.94.42,4.11,4.11,0,0,0-1.51,1.2,3.67,3.67,0,0,0-.62,1.34,12.25,12.25,0,0,0-.19,2.65v7.81h-2.49v-15.1H191v2.32a6.41,6.41,0,0,1,2.25-2.16,6.21,6.21,0,0,1,3-.71,5.78,5.78,0,0,1,3.12.79,4.87,4.87,0,0,1,1.95,2.28,6.77,6.77,0,0,1,2.3-2.31,6.19,6.19,0,0,1,3.08-.76,4.92,4.92,0,0,1,5.37,5.37v10.28Z"/><path class="cls-1" d="M219.58,170.15v7.43c0,2.16.32,3.68,1,4.54a4.75,4.75,0,0,0,6.51,0c.63-.85.95-2.37.95-4.56v-7.43h2.64V179a6.17,6.17,0,0,1-6.9,6.94,6.89,6.89,0,0,1-5.12-1.77,7,7,0,0,1-1.75-5.17v-8.81Z"/><path class="cls-1" d="M235.64,185.25v-15.1h2.53v2.32a6.48,6.48,0,0,1,2.34-2.16,6.83,6.83,0,0,1,3.17-.71,5.88,5.88,0,0,1,4.18,1.42,5.18,5.18,0,0,1,1.5,3.95v10.28h-2.64v-8.9a5.06,5.06,0,0,0-1-3.4,3.71,3.71,0,0,0-3-1.12,5.11,5.11,0,0,0-2.1.42,4.11,4.11,0,0,0-1.58,1.2,3.59,3.59,0,0,0-.68,1.35,11.33,11.33,0,0,0-.21,2.64v7.81Z"/><path class="cls-1" d="M254,162.87a1.8,1.8,0,0,1,.55-1.33,1.83,1.83,0,0,1,1.35-.55,1.75,1.75,0,0,1,1.32.56,1.84,1.84,0,0,1,.56,1.35,1.77,1.77,0,0,1-.55,1.32,1.83,1.83,0,0,1-1.33.55,1.87,1.87,0,0,1-1.35-.55A1.8,1.8,0,0,1,254,162.87Zm.61,22.38v-15.1h2.61v15.1Z"/><path class="cls-1" d="M274.25,181.67v3a8,8,0,0,1-2.3.92,12,12,0,0,1-2.77.31,7.45,7.45,0,0,1-5.63-2.22,8.05,8.05,0,0,1-2.14-5.84,8.21,8.21,0,0,1,2.21-5.93,7.5,7.5,0,0,1,5.66-2.31,11.17,11.17,0,0,1,2.46.27,10.13,10.13,0,0,1,2.25.77v2.78a8.6,8.6,0,0,0-2.05-1,7.13,7.13,0,0,0-2.14-.33,5.4,5.4,0,0,0-4.08,1.59,5.85,5.85,0,0,0-1.54,4.23,5.35,5.35,0,0,0,1.55,3.9,5.23,5.23,0,0,0,3.87,1.57,6.49,6.49,0,0,0,2.29-.42A9.83,9.83,0,0,0,274.25,181.67Z"/><path class="cls-1" d="M291.92,170.15v15.1h-2.51v-2.74a6.68,6.68,0,0,1-2.32,2.52,5.91,5.91,0,0,1-3.16.87,6.67,6.67,0,0,1-5.24-2.24,8.55,8.55,0,0,1-2-5.92,8.66,8.66,0,0,1,1.93-5.93,6.51,6.51,0,0,1,5.16-2.21,6.28,6.28,0,0,1,3.3.85,6.1,6.1,0,0,1,2.25,2.54v-2.84Zm-2.51,7.69a6,6,0,0,0-1.4-4.12,5.16,5.16,0,0,0-7.27-.12,5.74,5.74,0,0,0-1.3,4,6.16,6.16,0,0,0,1.31,4.23,5.34,5.34,0,0,0,7.34,0A5.78,5.78,0,0,0,289.41,177.84Z"/><path class="cls-1" d="M297.48,172.28h-2.77v-2.13h2.77v-6.09h2.64v6.09h2.77v2.13h-2.77v13h-2.64Z"/><path class="cls-1" d="M305.35,162.87a1.81,1.81,0,0,1,.56-1.33,1.8,1.8,0,0,1,1.34-.55,1.78,1.78,0,0,1,1.33.56,1.83,1.83,0,0,1,.55,1.35,1.8,1.8,0,0,1-.54,1.32,1.91,1.91,0,0,1-2.68,0A1.81,1.81,0,0,1,305.35,162.87Zm.61,22.38v-15.1h2.61v15.1Z"/><path class="cls-1" d="M312.8,177.74a8.06,8.06,0,0,1,.61-3.14,7.94,7.94,0,0,1,1.78-2.64,8,8,0,0,1,2.66-1.75,8.44,8.44,0,0,1,6.3,0,8.57,8.57,0,0,1,2.68,1.79,7.82,7.82,0,0,1,1.78,2.61,8.08,8.08,0,0,1,.61,3.13,7.91,7.91,0,0,1-.61,3.11,7.78,7.78,0,0,1-1.78,2.6,8.36,8.36,0,0,1-2.7,1.82,7.93,7.93,0,0,1-3.11.63,8.2,8.2,0,0,1-3.16-.62,8.26,8.26,0,0,1-4.45-4.42A7.93,7.93,0,0,1,312.8,177.74Zm2.74,0a5.58,5.58,0,0,0,1.6,4,5.18,5.18,0,0,0,3.88,1.66,5.08,5.08,0,0,0,3.84-1.66,6,6,0,0,0,0-8.1A5.08,5.08,0,0,0,321,172a5.17,5.17,0,0,0-3.89,1.66A5.63,5.63,0,0,0,315.54,177.74Z"/><path class="cls-1" d="M333.25,185.25v-15.1h2.53v2.32a6.48,6.48,0,0,1,2.34-2.16,6.83,6.83,0,0,1,3.17-.71,5.88,5.88,0,0,1,4.18,1.42A5.18,5.18,0,0,1,347,175v10.28h-2.64v-8.9a5.06,5.06,0,0,0-1-3.4,3.7,3.7,0,0,0-3-1.12,5.11,5.11,0,0,0-2.1.42,4.11,4.11,0,0,0-1.58,1.2,3.59,3.59,0,0,0-.68,1.35,11.33,11.33,0,0,0-.21,2.64v7.81Z"/><path class="cls-1" d="M158.81,115.19a24.25,24.25,0,0,0-7.05-4.25,21.63,21.63,0,0,0-7.81-1.42,17.22,17.22,0,0,0-12.89,5.08q-5,5.09-5,13.17a18,18,0,0,0,4.83,12.91,16.13,16.13,0,0,0,12.2,5.09,22.24,22.24,0,0,0,8.17-1.52,25.8,25.8,0,0,0,7.45-4.59v8.88a23.13,23.13,0,0,1-6.9,3.4,27.9,27.9,0,0,1-8.09,1.12,28.24,28.24,0,0,1-10.25-1.81,24.14,24.14,0,0,1-13.7-13.52,27.29,27.29,0,0,1,0-20,24.73,24.73,0,0,1,13.75-13.6,27.27,27.27,0,0,1,10.07-1.83,26.61,26.61,0,0,1,8.12,1.23,28.57,28.57,0,0,1,7.49,3.75Z"/><path class="cls-1" d="M200.47,151.78,195,139.33H175.84l-5.61,12.45H162l23.41-50.25,23.38,50.25Zm-21.72-19h13.47l-5-11c-.28-.71-.58-1.52-.89-2.43s-.61-1.93-.92-3.06c-.27,1.06-.55,2-.84,3s-.6,1.75-.91,2.53Z"/><path class="cls-1" d="M225.23,110.11v41.67h-7.86V110.11H204.53v-6.67H238v6.67Z"/><path class="cls-1" d="M238.27,103.44H246l9.15,24.4q.88,2.41,1.5,4.23c.41,1.21.76,2.34,1.07,3.4q1.15-3.84,2.41-7.5l.23-.63,9.71-25.81,10.23,26.31c.49,1.28.95,2.55,1.37,3.83s.83,2.56,1.21,3.86c.22-1,.52-2.08.89-3.27s.86-2.59,1.45-4.22l9.08-24.6h7.83l-18.72,50.22-11-27.57c-.48-1.23-.92-2.42-1.32-3.55s-.75-2.21-1.06-3.22c-.37,1.3-.75,2.52-1.12,3.65s-.76,2.22-1.15,3.25l-10.83,27.44Z"/><path class="cls-1" d="M338.24,151.78l-5.48-12.45H313.61L308,151.78h-8.25l23.41-50.25,23.37,50.25Zm-21.72-19H330l-4.95-11c-.29-.71-.59-1.52-.89-2.43s-.62-1.93-.93-3.06c-.26,1.06-.54,2-.84,3s-.6,1.75-.91,2.53Z"/><path class="cls-1" d="M351.09,151.78V103.44h7.85v41.3h17.57v7Z"/><path class="cls-1" d="M382.88,151.78V103.44h7.86v20l17.36-20h9.61l-19.15,21.49L420,151.78H409.85l-19.11-24.7v24.7Z"/><path class="cls-1" d="M128,29.33l-2.42-6.61-2.87,7.72c-3.75,4.4-5.29,11.46-5.51,22.26-5.73,4-6.18,8.38-6.4,10.8S98.49,86,84.16,88.2s-45.64,1.32-45.64,1.32C33,86.87,29,82.46,27.06,82.46s-4.85,1.9,3.53,7.23,9.48,6.44,19.62,6.88,24,1.33,24,1.33a48,48,0,0,0-6,12.56c-.88,2.65-11,7.94-11,7.94-.44,2.2-.44,18.3-.44,18.3-1.76,1.32-2.2,6.17.22,6a4.77,4.77,0,0,0,4.41-3.53c.44-1.76,2-11.68,2-11.68l2.65,21.16s.44,4,3.53,2.65.88-6.39.88-6.39l-.22-12.57s19.4-13.89,23.15-20.72c2.86-4.85,13.89-8.6,15.65-9.26s12.57-6,16.76-13.23S136,69.46,139.27,66.37s9.48-3.31,11.25-5.07,9.92-9.7,12.12-10.58,7.28,1.1,9.7.66,2-4.19,2-4.19c2.86,0,5.95-1.76,2.86-4.19s-31.08,2.87-33.29,2a11.14,11.14,0,0,1-3.74-2.65c4.18-3.09,3.3-4.19,3.3-5.29s.66-3.31-1.32-3.31-5.29-2.64-6.61-4S128,29.33,128,29.33Z"/></g></svg>