<svg xmlns="http://www.w3.org/2000/svg" viewBox="0 0 207.55 208.9"><title>LOGO_CATWALK</title><g id="Calque_3" data-name="Calque 3"><path d="M130.45,44.43l-2.52-6.87-3,8c-3.89,4.58-5.49,11.91-5.72,23.13-6,4.12-6.42,8.7-6.64,11.22s-12.83,23.36-27.71,25.65-47.41,1.37-47.41,1.37c-5.72-2.74-9.84-7.32-11.9-7.32s-5,2,3.66,7.51,9.85,6.68,20.38,7.14,25,1.38,25,1.38a49.27,49.27,0,0,0-6.18,13c-.92,2.75-11.45,8.24-11.45,8.24-.46,2.29-.46,19-.46,19-1.83,1.37-2.29,6.41.23,6.18a5,5,0,0,0,4.58-3.66c.46-1.83,2.06-12.14,2.06-12.14l2.75,22s.46,4.12,3.66,2.74.92-6.64.92-6.64l-.23-13s20.15-14.43,24-21.53c3-5,14.43-8.93,16.26-9.61s13.06-6.19,17.41-13.74,10.53-20.38,14-23.59,9.84-3.44,11.68-5.27,10.3-10.07,12.59-11,7.56,1.15,10.08.69S178.54,63,178.54,63c3,0,6.18-1.84,3-4.35s-32.28,3-34.57,2.06a11.61,11.61,0,0,1-3.9-2.75c4.35-3.21,3.44-4.35,3.44-5.5S147.16,49,145.1,49s-5.49-2.75-6.87-4.12S130.45,44.43,130.45,44.43Z"/></g></svg>