<svg xmlns="http://www.w3.org/2000/svg" viewBox="0 0 458.48 238.67"><defs><style>.cls-1{fill:none;stroke:#000;stroke-miterlimit:10;stroke-width:0.5px;}</style></defs><title>LOGO_CATWALK</title><g id="Calque_3" data-name="Calque 3"><rect class="cls-1" y="0.47" width="458.48" height="238.2"/><path d="M136.19,181.67v3a8,8,0,0,1-2.3.92,12.18,12.18,0,0,1-2.77.31,7.45,7.45,0,0,1-5.63-2.22,8.05,8.05,0,0,1-2.14-5.84,8.17,8.17,0,0,1,2.21-5.93,7.48,7.48,0,0,1,5.66-2.31,11.08,11.08,0,0,1,2.45.27,10,10,0,0,1,2.26.77v2.78a8.78,8.78,0,0,0-2.05-1,7.19,7.19,0,0,0-2.15-.33,5.39,5.39,0,0,0-4.07,1.59,5.81,5.81,0,0,0-1.54,4.23,5.33,5.33,0,0,0,1.54,3.9,5.23,5.23,0,0,0,3.87,1.57,6.5,6.5,0,0,0,2.3-.42A10,10,0,0,0,136.19,181.67Z"/><path d="M138.57,177.74a8.06,8.06,0,0,1,.61-3.14A7.8,7.8,0,0,1,141,172a8,8,0,0,1,2.66-1.75,8.44,8.44,0,0,1,6.3,0A8.68,8.68,0,0,1,152.6,172a7.82,7.82,0,0,1,1.78,2.61,8.08,8.08,0,0,1,.61,3.13,7.91,7.91,0,0,1-.61,3.11,7.78,7.78,0,0,1-1.78,2.6,8.47,8.47,0,0,1-2.7,1.82,7.93,7.93,0,0,1-3.11.63,8.2,8.2,0,0,1-3.16-.62A8.38,8.38,0,0,1,141,183.5a8.21,8.21,0,0,1-1.78-2.64A7.93,7.93,0,0,1,138.57,177.74Zm2.74,0a5.58,5.58,0,0,0,1.6,4,5.18,5.18,0,0,0,3.88,1.66,5.08,5.08,0,0,0,3.84-1.66,6,6,0,0,0,0-8.1,5.08,5.08,0,0,0-3.84-1.66,5.17,5.17,0,0,0-3.89,1.66A5.63,5.63,0,0,0,141.31,177.74Z"/><path d="M180.05,185.25v-8.9a5.29,5.29,0,0,0-.92-3.4,3.47,3.47,0,0,0-2.84-1.12,4.43,4.43,0,0,0-1.93.42,4.21,4.21,0,0,0-1.49,1.2,3.78,3.78,0,0,0-.64,1.39,11.37,11.37,0,0,0-.2,2.6v7.81h-2.49v-8.9a5.23,5.23,0,0,0-.93-3.4,3.46,3.46,0,0,0-2.84-1.12,4.54,4.54,0,0,0-1.94.42,4.11,4.11,0,0,0-1.51,1.2,3.67,3.67,0,0,0-.62,1.34,13,13,0,0,0-.19,2.65v7.81H159v-15.1h2.53v2.33a5.84,5.84,0,0,1,5.25-2.88,5.77,5.77,0,0,1,3.11.79,4.87,4.87,0,0,1,2,2.28,6.71,6.71,0,0,1,2.31-2.31,6.13,6.13,0,0,1,3.07-.76,4.92,4.92,0,0,1,5.37,5.37v10.28Z"/><path d="M208.72,185.25v-8.9a5.23,5.23,0,0,0-.92-3.4,3.46,3.46,0,0,0-2.84-1.12,4.42,4.42,0,0,0-1.92.42,4.16,4.16,0,0,0-1.5,1.2,3.94,3.94,0,0,0-.64,1.39,12,12,0,0,0-.2,2.6v7.81h-2.49v-8.9a5.23,5.23,0,0,0-.93-3.4,3.44,3.44,0,0,0-2.83-1.12,4.51,4.51,0,0,0-1.94.42,4,4,0,0,0-1.51,1.2,3.52,3.52,0,0,0-.62,1.34,12.25,12.25,0,0,0-.19,2.65v7.81h-2.5v-15.1h2.53v2.33a6.42,6.42,0,0,1,2.24-2.17,6.25,6.25,0,0,1,3-.71,5.83,5.83,0,0,1,3.12.79,4.87,4.87,0,0,1,1.95,2.28,6.68,6.68,0,0,1,2.3-2.31,6.17,6.17,0,0,1,3.08-.76,4.92,4.92,0,0,1,5.36,5.37v10.28Z"/><path d="M218.79,170.15v7.43c0,2.16.33,3.68,1,4.54a4.74,4.74,0,0,0,6.5,0c.64-.85,1-2.37,1-4.56v-7.43h2.64V179a7,7,0,0,1-1.75,5.18A7,7,0,0,1,223,185.9a6.87,6.87,0,0,1-5.11-1.77,7,7,0,0,1-1.75-5.17v-8.81Z"/><path d="M234.86,185.25v-15.1h2.52v2.33a6.37,6.37,0,0,1,2.35-2.17,6.83,6.83,0,0,1,3.17-.71,5.85,5.85,0,0,1,4.17,1.42,5.18,5.18,0,0,1,1.5,3.95v10.28h-2.64v-8.9a5.11,5.11,0,0,0-1-3.4,3.73,3.73,0,0,0-3-1.12,5.2,5.2,0,0,0-2.11.42,4.07,4.07,0,0,0-1.57,1.2,3.76,3.76,0,0,0-.69,1.35,11.33,11.33,0,0,0-.21,2.64v7.81Z"/><path d="M253.21,162.87a1.81,1.81,0,0,1,.56-1.33,1.8,1.8,0,0,1,1.34-.55,1.78,1.78,0,0,1,1.33.56,1.83,1.83,0,0,1,.55,1.35,1.8,1.8,0,0,1-.54,1.32,1.91,1.91,0,0,1-2.68,0A1.81,1.81,0,0,1,253.21,162.87Zm.61,22.38v-15.1h2.61v15.1Z"/><path d="M273.47,181.67v3a8,8,0,0,1-2.31.92,12,12,0,0,1-2.76.31,7.49,7.49,0,0,1-5.64-2.22,8.09,8.09,0,0,1-2.14-5.84,8.18,8.18,0,0,1,2.22-5.93,7.48,7.48,0,0,1,5.66-2.31,11.08,11.08,0,0,1,2.45.27,9.79,9.79,0,0,1,2.25.77v2.78a8.72,8.72,0,0,0-2-1,7.19,7.19,0,0,0-2.15-.33,5.43,5.43,0,0,0-4.08,1.59,5.84,5.84,0,0,0-1.53,4.23,5.33,5.33,0,0,0,1.54,3.9,5.23,5.23,0,0,0,3.87,1.57,6.54,6.54,0,0,0,2.3-.42A10,10,0,0,0,273.47,181.67Z"/><path d="M291.13,170.15v15.1h-2.51v-2.74A6.6,6.6,0,0,1,286.3,185a5.89,5.89,0,0,1-3.16.87,6.68,6.68,0,0,1-5.24-2.24,8.55,8.55,0,0,1-2-5.92,8.66,8.66,0,0,1,1.93-5.93A6.53,6.53,0,0,1,283,169.6a5.84,5.84,0,0,1,5.55,3.39v-2.84Zm-2.51,7.69a6,6,0,0,0-1.39-4.12,5.16,5.16,0,0,0-7.27-.12,5.75,5.75,0,0,0-1.31,4,6.21,6.21,0,0,0,1.31,4.23,4.72,4.72,0,0,0,3.73,1.48,4.66,4.66,0,0,0,3.62-1.44A5.83,5.83,0,0,0,288.62,177.84Z"/><path d="M296.69,172.28h-2.77v-2.13h2.77v-6.09h2.65v6.09h2.77v2.13h-2.77v13h-2.65Z"/><path d="M304.57,162.87a1.8,1.8,0,0,1,.55-1.33,1.83,1.83,0,0,1,1.35-.55,1.79,1.79,0,0,1,1.33.56,1.87,1.87,0,0,1,.55,1.35,1.77,1.77,0,0,1-.55,1.32,1.83,1.83,0,0,1-1.33.55,1.87,1.87,0,0,1-1.35-.55A1.8,1.8,0,0,1,304.57,162.87Zm.61,22.38v-15.1h2.61v15.1Z"/><path d="M312,177.74a8.25,8.25,0,0,1,.61-3.14,8.16,8.16,0,0,1,4.45-4.39,8.41,8.41,0,0,1,6.29,0A8.46,8.46,0,0,1,326,172a7.71,7.71,0,0,1,1.79,2.61,8.08,8.08,0,0,1,.61,3.13,7.91,7.91,0,0,1-.61,3.11,7.67,7.67,0,0,1-1.79,2.6,8.43,8.43,0,0,1-2.69,1.82,8,8,0,0,1-3.12.63,8.24,8.24,0,0,1-3.16-.62,8.35,8.35,0,0,1-4.45-4.42A8.11,8.11,0,0,1,312,177.74Zm2.74,0a5.59,5.59,0,0,0,1.61,4,5.32,5.32,0,0,0,7.72,0,6,6,0,0,0,0-8.1,5.33,5.33,0,0,0-7.73,0A5.6,5.6,0,0,0,314.75,177.74Z"/><path d="M332.47,185.25v-15.1H335v2.33a6.37,6.37,0,0,1,2.35-2.17,6.83,6.83,0,0,1,3.17-.71,5.85,5.85,0,0,1,4.17,1.42,5.18,5.18,0,0,1,1.5,3.95v10.28h-2.64v-8.9a5.11,5.11,0,0,0-1-3.4,3.73,3.73,0,0,0-3-1.12,5.2,5.2,0,0,0-2.11.42,4.07,4.07,0,0,0-1.57,1.2,3.76,3.76,0,0,0-.69,1.35,11.48,11.48,0,0,0-.2,2.64v7.81Z"/><path d="M158,115.19a24,24,0,0,0-7.05-4.25,21.59,21.59,0,0,0-7.81-1.42,17.22,17.22,0,0,0-12.89,5.08q-5,5.09-5,13.17a18,18,0,0,0,4.84,12.91,16.12,16.12,0,0,0,12.2,5.09,22.28,22.28,0,0,0,8.17-1.52,25.62,25.62,0,0,0,7.44-4.59v8.88a23.13,23.13,0,0,1-6.9,3.4,27.83,27.83,0,0,1-8.08,1.12,28.3,28.3,0,0,1-10.26-1.81A24.14,24.14,0,0,1,119,137.73a26.66,26.66,0,0,1-1.9-10,26.39,26.39,0,0,1,1.9-10,24.81,24.81,0,0,1,13.75-13.6,27.3,27.3,0,0,1,10.07-1.83,26.68,26.68,0,0,1,8.13,1.23,28.72,28.72,0,0,1,7.49,3.75Z"/><path d="M199.69,151.78l-5.49-12.45H175.06l-5.62,12.45h-8.25l23.41-50.25L208,151.78Zm-21.73-19h13.47l-5-11c-.29-.71-.58-1.52-.89-2.43s-.62-1.93-.93-3.06c-.26,1.06-.54,2-.84,3s-.6,1.75-.91,2.53Z"/><path d="M224.45,110.11v41.67h-7.86V110.11H203.75v-6.67h33.47v6.67Z"/><path d="M237.49,103.44h7.76l9.14,24.4q.9,2.41,1.5,4.23c.41,1.21.77,2.34,1.08,3.4q1.15-3.84,2.41-7.5c.11-.31.18-.52.23-.63l9.7-25.81,10.24,26.31c.48,1.28.94,2.55,1.37,3.83s.83,2.56,1.2,3.86q.33-1.49.9-3.27c.37-1.18.85-2.59,1.45-4.22l9.08-24.6h7.82l-18.72,50.22-11-27.57c-.49-1.23-.93-2.42-1.32-3.55s-.75-2.21-1.06-3.22c-.38,1.3-.75,2.52-1.12,3.65s-.76,2.22-1.16,3.25l-10.83,27.44Z"/><path d="M337.46,151.78,332,139.33H312.83l-5.61,12.45H299l23.41-50.25,23.37,50.25Zm-21.73-19H329.2l-4.95-11c-.28-.71-.58-1.52-.89-2.43s-.62-1.93-.92-3.06c-.27,1.06-.55,2-.85,3s-.6,1.75-.9,2.53Z"/><path d="M350.3,151.78V103.44h7.86v41.3h17.56v7Z"/><path d="M382.09,151.78V103.44H390v20l17.37-20h9.61l-19.15,21.49,21.42,26.85H409.07L390,127.08v24.7Z"/><path d="M127.25,29.33l-2.43-6.61L122,30.44c-3.74,4.4-5.29,11.46-5.51,22.26-5.73,4-6.17,8.38-6.39,10.8S97.7,86,83.37,88.2s-45.63,1.32-45.63,1.32c-5.51-2.65-9.48-7.06-11.47-7.06s-4.85,1.9,3.53,7.23,9.48,6.44,19.62,6.88,24,1.33,24,1.33a47.54,47.54,0,0,0-6,12.56c-.88,2.65-11,7.94-11,7.94C56,120.6,56,136.7,56,136.7c-1.77,1.32-2.21,6.17.22,6a4.77,4.77,0,0,0,4.4-3.53c.45-1.76,2-11.68,2-11.68l2.64,21.16s.45,4,3.53,2.65.88-6.39.88-6.39l-.22-12.57s19.4-13.89,23.15-20.72c2.87-4.85,13.89-8.6,15.66-9.26s12.56-6,16.75-13.23,10.14-19.62,13.45-22.71,9.48-3.31,11.24-5.07,9.92-9.7,12.13-10.58,7.27,1.1,9.7.66,2-4.19,2-4.19c2.87,0,6-1.76,2.87-4.19s-31.09,2.87-33.29,2a11.11,11.11,0,0,1-3.75-2.65c4.19-3.09,3.31-4.19,3.31-5.29s.66-3.31-1.33-3.31-5.29-2.64-6.61-4S127.25,29.33,127.25,29.33Z"/></g></svg>