<svg xmlns="http://www.w3.org/2000/svg" viewBox="0 0 397.71 155.89"><defs><style>.cls-1{fill:#fff;}</style></defs><title>LOGO_CATWALK</title><g id="Calque_1" data-name="Calque 1"><rect class="cls-1" width="397.71" height="155.89"/><path d="M106.31,109.64a4.91,4.91,0,0,0-1.71-1.23,5.18,5.18,0,0,0-2.1-.42,4.05,4.05,0,0,0-3.12,1.26,5.42,5.42,0,0,0,0,6.74,4.27,4.27,0,0,0,3.26,1.24,4.91,4.91,0,0,0,2.07-.43,4.58,4.58,0,0,0,1.59-1.31v3.66a7.54,7.54,0,0,1-1.88.75,9.15,9.15,0,0,1-2.13.24A7.17,7.17,0,0,1,97,118.06a7.32,7.32,0,0,1-2-5.39,7.18,7.18,0,0,1,2.13-5.41,7.69,7.69,0,0,1,5.57-2.06,8.25,8.25,0,0,1,2,.22,6.24,6.24,0,0,1,1.7.65Z"/><path d="M108.54,112.64a7.15,7.15,0,0,1,.58-2.87,7.23,7.23,0,0,1,1.66-2.41,7.31,7.31,0,0,1,2.46-1.6,8,8,0,0,1,5.87,0,7.5,7.5,0,0,1,2.48,1.64,7.35,7.35,0,0,1,1.67,2.42,7.18,7.18,0,0,1,.57,2.82,7.52,7.52,0,0,1-.56,2.89,7.22,7.22,0,0,1-1.65,2.39,8.09,8.09,0,0,1-2.53,1.66,7.68,7.68,0,0,1-2.93.56,7.63,7.63,0,0,1-5.38-2.19,7.71,7.71,0,0,1-1.67-2.43A7.33,7.33,0,0,1,108.54,112.64Zm11.94,0a4.62,4.62,0,0,0-1.25-3.27,4.12,4.12,0,0,0-6.08,0,4.89,4.89,0,0,0,0,6.55,4.11,4.11,0,0,0,6.07,0A4.63,4.63,0,0,0,120.48,112.67Z"/><path d="M130.38,119.57H127.2V105.69h3V108a6.13,6.13,0,0,1,2.16-2.12,5.86,5.86,0,0,1,2.85-.67,5,5,0,0,1,2.69.68,4.22,4.22,0,0,1,1.63,2.08,7.32,7.32,0,0,1,2.34-2.1,5.87,5.87,0,0,1,2.82-.66,5.37,5.37,0,0,1,2.4.51,3.85,3.85,0,0,1,1.6,1.47,3.52,3.52,0,0,1,.38,1.08,9.32,9.32,0,0,1,.13,1.81v9.53H146v-7.13a7.62,7.62,0,0,0-.59-3.69,2.38,2.38,0,0,0-2.12-.88,3,3,0,0,0-2.67,1.19,7.87,7.87,0,0,0-.8,4.18v6.33h-3.21v-7.13a7.36,7.36,0,0,0-.62-3.58,2.34,2.34,0,0,0-2.15-1,3.52,3.52,0,0,0-1.71.42,3.24,3.24,0,0,0-1.23,1.18,3,3,0,0,0-.41,1.18,18.27,18.27,0,0,0-.12,2.59Z"/><path d="M156.63,119.57h-3.18V105.69h3V108a6.13,6.13,0,0,1,2.16-2.12,5.86,5.86,0,0,1,2.85-.67,5,5,0,0,1,2.69.68,4.22,4.22,0,0,1,1.63,2.08,7.32,7.32,0,0,1,2.34-2.1,5.87,5.87,0,0,1,2.82-.66,5.37,5.37,0,0,1,2.4.51,3.85,3.85,0,0,1,1.6,1.47,3.52,3.52,0,0,1,.38,1.08,9.32,9.32,0,0,1,.13,1.81v9.53h-3.18v-7.13a7.62,7.62,0,0,0-.59-3.69,2.38,2.38,0,0,0-2.12-.88,3,3,0,0,0-2.67,1.19,7.87,7.87,0,0,0-.8,4.18v6.33h-3.21v-7.13a7.36,7.36,0,0,0-.62-3.58,2.34,2.34,0,0,0-2.15-1,3.52,3.52,0,0,0-1.71.42,3.24,3.24,0,0,0-1.23,1.18,3,3,0,0,0-.41,1.18,18.27,18.27,0,0,0-.12,2.59Z"/><path d="M182.78,105.69v7.82a4.17,4.17,0,0,0,.83,2.9,4.61,4.61,0,0,0,5.42,0,4.12,4.12,0,0,0,.84-2.9v-7.82h3.18v6.87c0,2.65-.54,4.58-1.6,5.78s-2.77,1.8-5.1,1.8-4.09-.59-5.16-1.78-1.59-3.13-1.59-5.8v-6.87Z"/><path d="M197.34,119.57V105.69h3V108a5.94,5.94,0,0,1,2.24-2.1,6.8,6.8,0,0,1,3.13-.66,6.56,6.56,0,0,1,2.65.49,3.85,3.85,0,0,1,2.23,2.79,14.71,14.71,0,0,1,.16,2.67v8.42h-3.21v-7.13a6.76,6.76,0,0,0-.66-3.64,2.78,2.78,0,0,0-2.37-.9,4.5,4.5,0,0,0-2,.41,3.19,3.19,0,0,0-1.37,1.16,3,3,0,0,0-.49,1.28,14.9,14.9,0,0,0-.14,2.49v6.33Z"/><path d="M214.7,99.68a1.86,1.86,0,0,1,.59-1.39,1.94,1.94,0,0,1,1.41-.59,1.93,1.93,0,0,1,2,2,2,2,0,0,1-.57,1.43,2,2,0,0,1-2.82,0A1.89,1.89,0,0,1,214.7,99.68Zm.42,19.89V105.69h3.18v13.88Z"/><path d="M233.21,109.64a4.91,4.91,0,0,0-1.71-1.23,5.25,5.25,0,0,0-2.1-.42,4.05,4.05,0,0,0-3.12,1.26,5.42,5.42,0,0,0,0,6.74,4.27,4.27,0,0,0,3.26,1.24,4.83,4.83,0,0,0,2.06-.43,4.52,4.52,0,0,0,1.6-1.31v3.66a7.54,7.54,0,0,1-1.88.75,9.15,9.15,0,0,1-2.13.24,7.16,7.16,0,0,1-5.33-2.08,7.33,7.33,0,0,1-2.06-5.39,7.19,7.19,0,0,1,2.14-5.41,7.69,7.69,0,0,1,5.57-2.06,8.25,8.25,0,0,1,2,.22,6.24,6.24,0,0,1,1.7.65Z"/><path d="M249.53,119.57h-3.18v-1.8a5.23,5.23,0,0,1-4.58,2.37,5.74,5.74,0,0,1-4.64-2,8.3,8.3,0,0,1-1.69-5.52,8,8,0,0,1,1.73-5.36,5.6,5.6,0,0,1,4.51-2,5.7,5.7,0,0,1,2.91.71,4.21,4.21,0,0,1,1.76,2v-2.27h3.18Zm-3.09-7a5.14,5.14,0,0,0-1-3.36,3.87,3.87,0,0,0-5.64,0,5.18,5.18,0,0,0-1,3.43,5.26,5.26,0,0,0,1,3.42,3.75,3.75,0,0,0,5.6-.11A5.19,5.19,0,0,0,246.44,112.59Z"/><path d="M254.67,119.57v-11.1h-2.43v-2.78h2.43v-5.26h3.18v5.26h2.43v2.78h-2.43v11.1Z"/><path d="M262.74,99.68a1.87,1.87,0,0,1,.6-1.39,1.93,1.93,0,0,1,1.41-.59,1.95,1.95,0,0,1,2,2,2,2,0,0,1-.57,1.43,1.94,1.94,0,0,1-1.41.58,2,2,0,0,1-2-2Zm.43,19.89V105.69h3.18v13.88Z"/><path d="M269.86,112.64a7.15,7.15,0,0,1,.58-2.87,7.38,7.38,0,0,1,1.66-2.41,7.52,7.52,0,0,1,2.46-1.6,8,8,0,0,1,5.87,0,7.5,7.5,0,0,1,2.48,1.64,7.24,7.24,0,0,1,2.24,5.24,7.33,7.33,0,0,1-.56,2.89,7.07,7.07,0,0,1-1.65,2.39,8,8,0,0,1-2.53,1.66,7.68,7.68,0,0,1-2.93.56,7.56,7.56,0,0,1-2.9-.56,7.69,7.69,0,0,1-4.15-4.06A7.33,7.33,0,0,1,269.86,112.64Zm11.94,0a4.61,4.61,0,0,0-1.24-3.27,4.13,4.13,0,0,0-6.09,0,4.92,4.92,0,0,0,0,6.55,4.12,4.12,0,0,0,6.08,0A4.66,4.66,0,0,0,281.8,112.67Z"/><path d="M288.52,119.57V105.69h3V108a6,6,0,0,1,2.24-2.1,6.84,6.84,0,0,1,3.14-.66,6.55,6.55,0,0,1,2.64.49,3.88,3.88,0,0,1,1.71,1.46,4.16,4.16,0,0,1,.53,1.33,15.71,15.71,0,0,1,.16,2.67v8.42h-3.21v-7.13c0-1.83-.22-3-.67-3.64a2.75,2.75,0,0,0-2.36-.9,4.51,4.51,0,0,0-2,.41,3.25,3.25,0,0,0-1.37,1.16,3.12,3.12,0,0,0-.49,1.28,16.09,16.09,0,0,0-.14,2.49v6.33Z"/><path d="M102.64,57.41a21.42,21.42,0,0,0-6.26-3.78,19.17,19.17,0,0,0-6.92-1.26A15.26,15.26,0,0,0,78,56.88a16,16,0,0,0-4.41,11.69A15.93,15.93,0,0,0,77.9,80a14.29,14.29,0,0,0,10.82,4.51A19.85,19.85,0,0,0,96,83.19a22.93,22.93,0,0,0,6.61-4.08V87a20.66,20.66,0,0,1-6.12,3,24.63,24.63,0,0,1-7.18,1,25.19,25.19,0,0,1-9.1-1.61A21.44,21.44,0,0,1,68,77.4a23.59,23.59,0,0,1-1.68-8.89A23.32,23.32,0,0,1,68,59.65,22,22,0,0,1,80.23,47.58,24,24,0,0,1,89.16,46a23.58,23.58,0,0,1,7.21,1.1A25.38,25.38,0,0,1,103,50.37Z"/><path d="M139.61,89.87l-4.86-11.05h-17l-5,11.05h-7.33l20.77-44.59L147,89.87ZM120.33,73h12l-4.4-9.78c-.25-.63-.51-1.35-.79-2.16s-.54-1.71-.82-2.71c-.23.94-.48,1.81-.75,2.62s-.53,1.56-.8,2.25Z"/><path d="M161.58,52.89v37h-7v-37H143.22V47h29.7v5.91Z"/><path d="M173.16,47H180l8.12,21.65c.52,1.42,1,2.67,1.33,3.75s.68,2.08.95,3q1-3.39,2.14-6.65c.1-.27.17-.46.21-.55l8.61-22.91,9.08,23.35c.43,1.13.84,2.26,1.22,3.39s.73,2.28,1.07,3.43c.19-.88.46-1.84.79-2.9s.76-2.3,1.29-3.75L222.9,47h6.95L213.23,91.54l-9.78-24.47q-.64-1.63-1.17-3.15c-.35-1-.67-2-.94-2.85-.33,1.15-.66,2.23-1,3.23s-.67,2-1,2.89l-9.61,24.35Z"/><path d="M261.87,89.87,257,78.82H240l-5,11.05h-7.32l20.77-44.59,20.74,44.59ZM242.59,73h11.95l-4.39-9.78c-.26-.63-.52-1.35-.79-2.16s-.55-1.71-.82-2.71c-.24.94-.49,1.81-.75,2.62s-.53,1.56-.81,2.25Z"/><path d="M273.26,89.87V47h7V83.63h15.58v6.24Z"/><path d="M301.48,89.87V47h7V64.73L323.86,47h8.53l-17,19.07,19,23.82h-9L308.45,68V89.87Z"/></g></svg>